<svg id="Layer_2" data-name="Layer 2" xmlns="http://www.w3.org/2000/svg" viewBox="0 0 489.01 488.92"><defs><style>.cls-1{fill:#fff;}</style></defs><circle class="cls-1" cx="164.26" cy="64.87" r="46.53"/><circle class="cls-1" cx="263.58" cy="43.1" r="43.1"/><circle class="cls-1" cx="347.61" cy="58.63" r="34.25"/><circle class="cls-1" cx="400.44" cy="136.55" r="51.6"/><circle class="cls-1" cx="76.22" cy="126.46" r="44.69"/><circle class="cls-1" cx="165.97" cy="162.01" r="44.81"/><circle class="cls-1" cx="252.42" cy="435.91" r="53.01"/><circle class="cls-1" cx="281.95" cy="267.52" r="40.57"/><circle class="cls-1" cx="193.01" cy="252.71" r="40.3"/><circle class="cls-1" cx="57.35" cy="348.35" r="37.98"/><circle class="cls-1" cx="306.05" cy="122.51" r="37.02"/><circle class="cls-1" cx="107.6" cy="233.25" r="41.09"/><circle class="cls-1" cx="35.63" cy="270.52" r="35.63"/><circle class="cls-1" cx="40.64" cy="198.8" r="29.39"/><circle class="cls-1" cx="251.77" cy="185.97" r="38.5"/><circle class="cls-1" cx="133.57" cy="313.44" r="37"/><circle class="cls-1" cx="232.38" cy="114.5" r="30.49"/><circle class="cls-1" cx="184.48" cy="372.04" r="33.31"/><circle class="cls-1" cx="349.02" cy="412.83" r="40.79"/><circle class="cls-1" cx="425.15" cy="290.47" r="35.33"/><circle class="cls-1" cx="157.75" cy="438.44" r="33.1"/><circle class="cls-1" cx="119.99" cy="382.9" r="26.85"/><circle class="cls-1" cx="291.8" cy="349.11" r="36.17"/><circle class="cls-1" cx="228.79" cy="319.92" r="28.43"/><circle class="cls-1" cx="420.63" cy="358.83" r="27.41"/><circle class="cls-1" cx="362.69" cy="337.09" r="27.76"/><circle class="cls-1" cx="357.9" cy="275.02" r="28.39"/><circle class="cls-1" cx="330.37" cy="199.41" r="34.45"/><circle class="cls-1" cx="399.52" cy="224.79" r="29.4"/><circle class="cls-1" cx="462.04" cy="220.9" r="26.97"/></svg>