<?xml version="1.0" standalone="no"?>
<!DOCTYPE svg PUBLIC "-//W3C//DTD SVG 20010904//EN"
 "http://www.w3.org/TR/2001/REC-SVG-20010904/DTD/svg10.dtd">
<svg version="1.0" xmlns="http://www.w3.org/2000/svg"
 width="700.000000pt" height="700.000000pt" viewBox="0 0 700.000000 700.000000"
 preserveAspectRatio="xMidYMid meet">
<metadata>
Created by potrace 1.11, written by Peter Selinger 2001-2013
</metadata>
<g transform="translate(0.000000,700.000000) scale(0.100000,-0.100000)"
fill="#000000" stroke="none">
<path d="M3622 6980 c-308 -81 -509 -386 -458 -695 31 -190 164 -368 336 -452
47 -23 112 -47 145 -54 73 -15 226 -14 255 1 11 6 20 8 20 6 0 -3 19 2 42 10
309 109 482 416 411 728 -33 145 -151 309 -276 384 -139 84 -323 112 -475 72z"/>
<path d="M2230 6725 c-314 -62 -534 -322 -544 -640 -12 -416 373 -745 783
-668 360 68 594 399 539 763 -39 258 -239 472 -506 540 -66 17 -199 19 -272 5z"/>
<path d="M4839 6630 c-89 -28 -140 -59 -209 -129 -96 -96 -141 -201 -142 -330
-3 -230 149 -427 374 -487 50 -13 175 -13 233 0 115 27 265 148 317 256 138
288 -11 614 -318 695 -74 19 -184 17 -255 -5z"/>
<path d="M965 5816 c-243 -52 -434 -233 -495 -471 -7 -27 -14 -88 -16 -135
-11 -310 202 -582 507 -646 392 -82 769 224 769 626 0 162 -66 325 -178 438
-74 76 -119 108 -204 146 -111 50 -264 67 -383 42z"/>
<path d="M3220 5782 c-252 -65 -391 -331 -300 -575 64 -170 235 -286 415 -281
314 7 518 336 385 619 -90 190 -298 288 -500 237z"/>
<path d="M5698 5785 c-2 -2 -28 -5 -58 -9 -169 -18 -303 -86 -435 -220 -141
-143 -209 -309 -208 -511 0 -134 17 -206 81 -335 38 -79 60 -109 132 -180 98
-97 165 -140 284 -181 397 -137 815 78 946 486 32 99 36 280 9 385 -57 223
-192 388 -399 491 -58 29 -161 59 -220 65 -61 6 -130 11 -132 9z"/>
<path d="M4278 5764 c-183 -34 -337 -171 -400 -351 -18 -55 -23 -88 -22 -168
2 -156 47 -269 151 -372 211 -208 541 -207 750 3 206 209 204 537 -6 744 -127
127 -295 177 -473 144z"/>
<path d="M2200 5296 c-334 -100 -528 -436 -445 -771 54 -218 215 -385 445
-462 84 -28 282 -25 370 6 222 77 388 262 434 484 8 35 12 102 10 155 -10 265
-181 491 -440 583 -92 32 -275 35 -374 5z"/>
<path d="M3470 4871 c-205 -54 -370 -228 -407 -429 -11 -58 -7 -192 7 -242 56
-205 225 -360 441 -406 25 -5 149 -5 184 0 102 15 211 72 295 156 295 295 175
779 -225 915 -72 24 -214 27 -295 6z"/>
<path d="M4605 4621 c-175 -49 -308 -184 -355 -361 -25 -94 -7 -247 39 -338
78 -152 243 -260 412 -267 204 -10 388 100 477 285 70 147 47 369 -53 498 -63
82 -172 157 -265 182 -70 19 -187 19 -255 1z"/>
<path d="M530 4569 c-217 -28 -371 -207 -365 -424 2 -84 15 -134 52 -197 80
-134 205 -209 358 -213 133 -4 263 60 341 167 80 108 104 234 69 363 -54 200
-249 331 -455 304z"/>
<path d="M1455 4244 c-137 -31 -237 -80 -315 -154 -72 -70 -119 -142 -155
-240 -24 -65 -28 -90 -28 -185 -1 -95 3 -121 26 -189 156 -448 738 -545 1025
-170 74 96 113 208 117 330 7 217 -91 405 -269 519 -65 41 -89 52 -176 75 -62
16 -182 23 -225 14z"/>
<path d="M6595 4222 c-143 -9 -263 -90 -327 -219 -81 -165 -30 -367 119 -475
68 -49 127 -70 209 -73 158 -8 298 77 365 220 106 225 -23 485 -268 538 -32 6
-76 11 -98 9z"/>
<path d="M5614 4191 c-100 -26 -223 -124 -266 -213 -39 -79 -48 -122 -45 -217
3 -69 9 -98 30 -145 76 -166 224 -258 402 -251 118 5 203 43 286 128 49 50 93
126 107 184 4 16 6 69 6 119 -1 83 -5 98 -37 166 -44 91 -111 157 -203 200
-56 26 -80 31 -158 34 -50 2 -105 0 -122 -5z"/>
<path d="M2640 3945 c-173 -38 -322 -159 -402 -325 -49 -103 -62 -234 -37
-360 11 -54 47 -150 60 -160 3 -3 13 -19 22 -36 8 -16 43 -57 76 -90 170 -168
428 -215 641 -116 75 35 105 56 175 127 225 225 216 592 -19 817 -130 125
-336 182 -516 143z"/>
<path d="M3880 3727 c-105 -32 -175 -72 -246 -142 -119 -118 -175 -250 -177
-414 -1 -155 57 -295 168 -407 199 -200 502 -230 736 -73 228 153 315 448 208
704 -16 39 -37 82 -47 95 -127 170 -272 250 -467 256 -81 2 -114 -1 -175 -19z"/>
<path d="M425 3629 c-199 -32 -371 -197 -414 -396 -13 -65 -7 -205 12 -259 29
-80 68 -145 120 -197 60 -62 109 -94 187 -124 75 -29 102 -34 179 -34 136 0
260 51 355 146 235 233 197 611 -80 791 -99 64 -239 92 -359 73z"/>
<path d="M5023 3455 c-80 -22 -133 -53 -188 -109 -223 -226 -109 -609 201
-679 62 -14 72 -14 154 -3 108 14 225 94 280 192 41 70 51 104 56 189 15 269
-244 481 -503 410z"/>
<path d="M5948 3325 c-93 -27 -152 -62 -222 -131 -62 -62 -121 -169 -135 -249
-16 -85 -6 -212 23 -283 49 -123 140 -220 258 -275 155 -73 323 -66 468 20
125 74 204 181 236 320 87 374 -261 705 -628 598z"/>
<path d="M1815 3034 c-72 -19 -146 -48 -185 -74 -191 -127 -283 -356 -231
-575 40 -164 173 -312 331 -368 73 -26 84 -28 162 -31 150 -7 283 46 393 158
274 277 171 728 -197 867 -52 20 -228 35 -273 23z"/>
<path d="M3159 2808 c-177 -55 -289 -206 -289 -393 0 -331 391 -521 650 -316
64 51 86 78 122 151 31 61 33 71 33 170 0 98 -2 110 -32 170 -92 186 -292 276
-484 218z"/>
<path d="M5115 2564 c-188 -46 -314 -198 -320 -384 -2 -59 25 -156 58 -213 84
-143 281 -222 440 -176 246 73 362 325 254 557 -32 70 -111 148 -183 183 -52
24 -81 31 -147 34 -45 2 -91 2 -102 -1z"/>
<path d="M755 2552 c-227 -24 -431 -218 -470 -447 -46 -270 130 -546 395 -618
60 -16 212 -17 271 -2 240 64 411 281 411 523 0 79 -1 85 -22 162 -44 165
-197 314 -372 365 -55 16 -153 24 -213 17z"/>
<path d="M4058 2504 c-166 -38 -305 -163 -368 -329 -34 -89 -36 -237 -6 -326
30 -89 69 -153 130 -214 204 -202 523 -200 727 4 223 224 198 581 -56 777
-115 89 -278 122 -427 88z"/>
<path d="M5960 2248 c-198 -30 -332 -195 -327 -401 2 -71 7 -92 35 -149 41
-84 108 -150 192 -191 59 -29 73 -32 160 -32 85 1 102 4 161 31 81 39 155 110
194 189 27 55 30 69 30 165 0 98 -2 110 -32 170 -79 161 -238 245 -413 218z"/>
<path d="M2521 2134 c-134 -36 -251 -134 -309 -257 -34 -71 -44 -114 -46 -196
-8 -261 212 -484 474 -482 357 3 584 377 423 695 -54 106 -175 203 -298 239
-67 19 -178 20 -244 1z"/>
<path d="M1624 1891 c-100 -26 -201 -107 -248 -199 -123 -244 46 -539 319
-556 230 -14 416 174 403 406 -8 140 -90 261 -218 321 -52 25 -79 31 -145 33
-44 2 -94 -1 -111 -5z"/>
<path d="M4925 1668 c-283 -36 -499 -271 -510 -556 -11 -281 177 -526 455
-592 52 -13 180 -16 225 -6 157 33 279 110 367 227 153 204 154 493 2 695
-126 169 -333 258 -539 232z"/>
<path d="M3528 1515 c-2 -2 -21 -5 -43 -8 -141 -20 -310 -110 -419 -222 -135
-140 -210 -330 -209 -530 2 -315 189 -586 488 -706 132 -52 348 -61 480 -19
212 68 374 205 465 395 64 132 80 209 76 355 -2 63 -6 126 -10 139 -56 229
-203 418 -404 520 -40 20 -122 48 -197 66 -29 7 -221 16 -227 10z"/>
<path d="M2190 1192 c-166 -22 -308 -138 -375 -306 -47 -119 -36 -270 29 -391
11 -22 26 -45 32 -51 6 -7 21 -25 35 -41 132 -156 382 -197 573 -95 68 36 157
126 190 190 74 147 74 315 -2 456 -54 99 -179 196 -292 226 -45 12 -143 19
-190 12z"/>
</g>
</svg>
